<svg width="101" height="32" viewBox="0 0 101 32" fill="none" xmlns="http://www.w3.org/2000/svg">
<g clip-path="url(#clip0_6061_7082)">
<path d="M44.5096 13.5694C41.9467 13.5694 40.1992 11.6926 40.1992 8.87079C40.1992 6.03605 41.9467 4.15918 44.5096 4.15918C47.0854 4.15918 48.8199 6.03605 48.8199 8.87079C48.8199 11.6926 47.0724 13.5694 44.5096 13.5694ZM44.5096 12.0291C46.1534 12.0291 47.2019 10.8124 47.2019 8.87079C47.2019 6.91624 46.1534 5.69951 44.5096 5.69951C42.8657 5.69951 41.8172 6.9033 41.8172 8.87079C41.8172 10.8253 42.8657 12.0291 44.5096 12.0291Z" fill="black"/>
<path d="M53.6403 6.86426C55.3748 6.86426 56.3326 8.27514 56.3326 10.1909C56.3326 12.2748 55.2066 13.5045 53.6403 13.5045C52.9155 13.5045 52.2035 13.2069 51.8023 12.7278V16.0156H50.249V6.99369H51.8023V7.62795C52.2424 7.08429 52.9543 6.86426 53.6403 6.86426ZM53.252 12.1454C54.2875 12.1454 54.7794 11.4205 54.7794 10.1779C54.7794 8.92234 54.3005 8.22337 53.2649 8.22337C52.1387 8.22337 51.6599 9.03884 51.6599 10.1779C51.6599 11.2911 52.1387 12.1454 53.252 12.1454Z" fill="black"/>
<path d="M63.0913 10.1002C63.0913 10.2944 63.0782 10.4886 63.0524 10.6957H58.6774C58.7421 11.537 59.2598 12.0936 60.2695 12.0936C60.839 12.0936 61.3568 11.9124 61.7969 11.4076L62.8712 12.3525C62.1723 13.1292 61.3308 13.5045 60.2565 13.5045C58.0561 13.5045 57.124 11.9253 57.124 10.2167C57.124 8.54696 58.0301 6.86426 60.1529 6.86426C62.1334 6.86426 63.0913 8.32692 63.0913 10.1002ZM58.6643 9.46599H61.6027C61.5768 8.65052 60.9555 8.15864 60.14 8.15864C59.195 8.15864 58.755 8.83173 58.6643 9.46599Z" fill="black"/>
<path d="M67.8481 6.86426C69.2849 6.86426 70.1004 7.74444 70.1004 9.25889V13.3751H68.547V9.6472C68.547 9.20711 68.547 8.22337 67.3692 8.22337C65.9194 8.22337 65.9194 9.68604 65.9194 10.8251V13.3751H64.3662V6.99369H65.9194V7.73149C66.3725 7.12313 67.0714 6.86426 67.8481 6.86426Z" fill="black"/>
<path d="M75.1553 13.3765V4.35449H77.7699C80.7601 4.35449 82.4686 6.01132 82.4686 8.93666C82.4686 11.8102 80.8118 13.3765 77.757 13.3765H75.1553ZM76.7732 11.8879H77.6017C79.8798 11.8879 80.8377 10.9948 80.8377 8.87194C80.8377 6.78796 79.8798 5.84305 77.7441 5.84305H76.7732V11.8879Z" fill="black"/>
<path d="M86.3426 6.86426C88.0254 6.86426 89.0738 7.80916 89.0738 9.34949V13.3751H87.65L87.5206 12.5467C87.1452 13.1421 86.4203 13.5045 85.5789 13.5045C84.2328 13.5045 83.2749 12.6373 83.2749 11.4205C83.2749 10.6698 83.6115 10.1002 84.2328 9.81548C84.6599 9.62132 85.2036 9.53071 85.9284 9.53071H87.5206V9.34949C87.5206 8.65052 87.0546 8.22337 86.3167 8.22337C85.6696 8.22337 85.0612 8.55991 84.5953 9.18122L83.4691 8.23631C84.2328 7.31729 85.1777 6.86426 86.3426 6.86426ZM85.8249 12.1842C86.7569 12.1842 87.5206 11.5241 87.5206 10.6957H86.1356C85.6049 10.6957 85.2942 10.7604 85.0871 10.9157C84.9188 11.0322 84.8283 11.2134 84.8283 11.4464C84.8283 11.8995 85.2036 12.1842 85.8249 12.1842Z" fill="black"/>
<path d="M94.0755 8.22368H92.4833V11.4726C92.4833 11.9774 92.794 12.2104 93.2988 12.2104C93.5189 12.2104 93.7907 12.1586 94.0755 12.068V13.3107C93.6872 13.4401 93.2988 13.5048 92.9105 13.5048C91.8362 13.5048 90.9301 12.9482 90.9301 11.5891V8.22368H89.8945V6.99399H90.9301V5.76432L92.4833 4.6123V6.99399H94.0755V8.22368Z" fill="black"/>
<path d="M97.9497 6.86426C99.6324 6.86426 100.681 7.80916 100.681 9.34949V13.3751H99.257L99.1275 12.5467C98.7521 13.1421 98.0273 13.5045 97.1858 13.5045C95.8397 13.5045 94.8818 12.6373 94.8818 11.4205C94.8818 10.6698 95.2185 10.1002 95.8397 9.81548C96.2668 9.62132 96.8106 9.53071 97.5354 9.53071H99.1275V9.34949C99.1275 8.65052 98.6615 8.22337 97.9237 8.22337C97.2765 8.22337 96.6682 8.55991 96.2022 9.18122L95.0761 8.23631C95.8397 7.31729 96.7846 6.86426 97.9497 6.86426ZM97.4319 12.1842C98.3638 12.1842 99.1275 11.5241 99.1275 10.6957H97.7425C97.2118 10.6957 96.9012 10.7604 96.694 10.9157C96.5258 11.0322 96.4352 11.2134 96.4352 11.4464C96.4352 11.8995 96.8106 12.1842 97.4319 12.1842Z" fill="black"/>
<path d="M41.961 26.6159H46.4267V27.6126H40.8608V18.5518H46.2973V19.5484H41.961V22.3444H45.65V23.341H41.961V26.6159Z" fill="black"/>
<path d="M52.7055 18.5518H53.7799V27.6126H53.1197L52.6797 26.9007C52.2783 27.4054 51.67 27.742 50.7899 27.742C48.7965 27.742 48.0068 26.0204 48.0068 24.5707C48.0068 23.1339 48.7965 21.3995 50.7899 21.3995C51.7218 21.3995 52.3431 21.7749 52.7443 22.3055L52.7055 18.5518ZM50.8804 26.7712C52.0195 26.7712 52.8479 25.9298 52.8479 24.506C52.8479 23.2116 52.0195 22.3702 50.8804 22.3702C49.7414 22.3702 49.0812 23.2246 49.0812 24.5707C49.0812 25.9169 49.7414 26.7712 50.8804 26.7712Z" fill="black"/>
<path d="M58.8088 18.5518V20.0533H57.3073V18.5518H58.8088ZM58.6923 26.6417H61.0093V27.6126H55.2881V26.6417H57.605V22.4997H55.5469V21.5289H58.6793L58.6923 26.6417Z" fill="black"/>
<path d="M67.3585 25.6194L68.2646 26.0724C67.8893 27.1467 67.1773 27.7422 65.9994 27.7422C64.5755 27.7422 63.7471 26.8749 63.7471 25.3993V22.4998H62.1162V21.529H63.7471V19.3545H64.8216V21.529H67.9669V22.4998H64.8216V25.231C64.8216 25.7358 64.8216 26.7714 66.0123 26.7714C66.8537 26.7714 67.0996 26.2665 67.3585 25.6194Z" fill="black"/>
<path d="M72.6561 27.7439C70.6109 27.7439 69.7695 26.1259 69.7695 24.5078C69.7695 23.0193 70.6109 21.4014 72.6561 21.4014C74.7012 21.4014 75.5426 23.0193 75.5426 24.5078C75.5426 26.1259 74.7012 27.7439 72.6561 27.7439ZM72.6561 26.7731C73.8211 26.7731 74.4682 25.9317 74.4682 24.5078C74.4682 23.2134 73.8211 22.3721 72.6561 22.3721C71.4911 22.3721 70.8439 23.2134 70.8439 24.5078C70.8439 25.9317 71.4911 26.7731 72.6561 26.7731Z" fill="black"/>
<path d="M80.9309 21.4014C81.811 21.4014 82.5747 21.8673 83.0148 23.0581L82.0958 23.4853C81.7852 22.6958 81.5133 22.3721 80.8273 22.3721C79.3905 22.3721 79.1575 23.8089 79.1575 24.8703V26.6436H80.4131V27.6144H76.9312V26.6436H78.0832V22.5016H77.0606V21.5307H78.7433L79.2482 22.3333C79.6105 21.7897 80.1412 21.4014 80.9309 21.4014Z" fill="black"/>
<path d="M31.4998 0H0.863003C0.387189 0 0.00146484 0.385724 0.00146484 0.861538V31.067C0.00146484 31.5428 0.387189 31.9285 0.863003 31.9285H31.4998C31.9756 31.9285 32.3613 31.5428 32.3613 31.067V0.861538C32.3613 0.385724 31.9756 0 31.4998 0Z" fill="url(#paint0_linear_6061_7082)"/>
<path d="M9.08173 7.97985L14.3188 13.2806H6.90527V19.0805H14.3019L9.06473 24.3813L13.1116 28.4773L17.2605 24.2781V19.0805C16.0191 17.3423 16.0191 15.0016 17.2605 13.2634V8.08311L13.1116 3.88379L9.08173 7.97985Z" fill="white"/>
<path d="M19.418 20.5763V12.0811H25.248V13.8361H21.3738V15.2988H25.061V17.066H21.3738V18.8212H25.248V20.5763H19.418Z" fill="white"/>
</g>
<defs>
<linearGradient id="paint0_linear_6061_7082" x1="32.3613" y1="-1.90309e-06" x2="0.0014674" y2="31.9285" gradientUnits="userSpaceOnUse">
<stop offset="0.239583" stop-color="#00D1FF"/>
<stop offset="1" stop-color="#AEFFEC"/>
</linearGradient>
<clipPath id="clip0_6061_7082">
<rect width="100.677" height="32" fill="white"/>
</clipPath>
</defs>
</svg>
