<?xml version="1.0" encoding="UTF-8" standalone="no"?>
<svg
   width="818"
   height="260"
   viewBox="0 0 818 260"
   fill="none"
   version="1.1"
   id="svg17"
   sodipodi:docname="logo-dark.svg"
   inkscape:version="1.3 (0e150ed, 2023-07-21)"
   xmlns:inkscape="http://www.inkscape.org/namespaces/inkscape"
   xmlns:sodipodi="http://sodipodi.sourceforge.net/DTD/sodipodi-0.dtd"
   xmlns="http://www.w3.org/2000/svg"
   xmlns:svg="http://www.w3.org/2000/svg">
  <sodipodi:namedview
     id="namedview17"
     pagecolor="#ffffff"
     bordercolor="#666666"
     borderopacity="1.0"
     inkscape:showpageshadow="2"
     inkscape:pageopacity="0.0"
     inkscape:pagecheckerboard="0"
     inkscape:deskcolor="#d1d1d1"
     showgrid="false"
     inkscape:zoom="1.0403423"
     inkscape:cx="550.29965"
     inkscape:cy="129.76498"
     inkscape:window-width="1600"
     inkscape:window-height="873"
     inkscape:window-x="0"
     inkscape:window-y="-10"
     inkscape:window-maximized="1"
     inkscape:current-layer="svg17" />
  <path
     d="M361.639 110.255C340.815 110.255 326.617 95.0057 326.617 72.0787C326.617 49.0465 340.815 33.7969 361.639 33.7969C382.567 33.7969 396.66 49.0465 396.66 72.0787C396.66 95.0057 382.462 110.255 361.639 110.255ZM361.639 97.7401C374.995 97.7401 383.514 87.8541 383.514 72.0787C383.514 56.198 374.995 46.3121 361.639 46.3121C348.282 46.3121 339.763 56.0929 339.763 72.0787C339.763 87.9593 348.282 97.7401 361.639 97.7401Z"
     fill="black"
     id="path1"
     style="stroke-width:1.0015748;stroke-dasharray:none;fill:#ffffff" />
  <path
     d="M435.798 55.7774C449.891 55.7774 457.673 67.2408 457.673 82.806C457.673 99.7383 448.524 109.729 435.798 109.729C429.909 109.729 424.124 107.311 420.864 103.419V130.132H408.244V56.829H420.864V61.9824C424.44 57.5652 430.224 55.7774 435.798 55.7774ZM432.643 98.6866C441.057 98.6866 445.053 92.7971 445.053 82.7008C445.053 72.4993 441.162 66.8202 432.748 66.8202C423.598 66.8202 419.707 73.4459 419.707 82.7008C419.707 91.7454 423.598 98.6866 432.643 98.6866Z"
     fill="black"
     id="path2"
     style="fill:#ffffff" />
  <path
     d="M512.598 82.0698C512.598 83.6473 512.492 85.2249 512.282 86.9076H476.735C477.261 93.7436 481.467 98.2659 489.671 98.2659C494.298 98.2659 498.505 96.7936 502.081 92.6919L510.81 100.369C505.131 106.68 498.294 109.729 489.565 109.729C471.687 109.729 464.114 96.8987 464.114 83.0163C464.114 69.4494 471.476 55.7774 488.724 55.7774C504.815 55.7774 512.598 67.6615 512.598 82.0698ZM476.629 76.9165H500.503C500.293 70.2908 495.245 66.2943 488.619 66.2943C480.941 66.2943 477.366 71.7631 476.629 76.9165Z"
     fill="black"
     id="path3"
     style="fill:#ffffff" />
  <path
     d="M551.253 55.7774C562.927 55.7774 569.553 62.9289 569.553 75.2338V108.678H556.932V78.3888C556.932 74.8131 556.932 66.8202 547.362 66.8202C535.583 66.8202 535.583 78.7044 535.583 87.9593V108.678H522.963V56.829H535.583V62.8237C539.264 57.8807 544.943 55.7774 551.253 55.7774Z"
     fill="black"
     id="path4"
     style="fill:#ffffff" />
  <path
     d="M610.614 108.678V35.3744H631.858C656.153 35.3744 670.035 48.8361 670.035 72.6045C670.035 95.9522 656.573 108.678 631.753 108.678H610.614ZM623.76 96.5832H630.491C649.001 96.5832 656.784 89.3265 656.784 72.0787C656.784 55.1463 649.001 47.4689 631.648 47.4689H623.76V96.5832Z"
     fill="black"
     id="path5"
     style="fill:#ffffff" />
  <path
     d="M701.523 55.7774C715.196 55.7774 723.714 63.4547 723.714 75.9699V108.678H712.146L711.094 101.947C708.044 106.785 702.154 109.729 695.318 109.729C684.381 109.729 676.598 102.683 676.598 92.7971C676.598 86.6973 679.333 82.0698 684.381 79.7561C687.851 78.1785 692.269 77.4423 698.158 77.4423H711.094V75.9699C711.094 70.2908 707.308 66.8202 701.313 66.8202C696.055 66.8202 691.112 69.5546 687.326 74.6027L678.176 66.9253C684.381 59.4583 692.058 55.7774 701.523 55.7774ZM697.317 99.0021C704.889 99.0021 711.094 93.6385 711.094 86.9076H699.841C695.529 86.9076 693.005 87.4334 691.322 88.6955C689.955 89.642 689.219 91.1144 689.219 93.0074C689.219 96.6884 692.269 99.0021 697.317 99.0021Z"
     fill="black"
     id="path6"
     style="fill:#ffffff" />
  <path
     d="M764.351 66.8202H751.415V93.2178C751.415 97.3194 753.939 99.2125 758.041 99.2125C759.829 99.2125 762.037 98.7918 764.351 98.0556V108.152C761.196 109.204 758.041 109.729 754.886 109.729C746.157 109.729 738.795 105.207 738.795 94.1643V66.8202H730.381V56.829H738.795V46.8379L751.415 37.4778V56.829H764.351V66.8202Z"
     fill="black"
     id="path7"
     style="fill:#ffffff" />
  <path
     d="M795.807 55.7774C809.479 55.7774 817.997 63.4547 817.997 75.9699V108.678H806.429L805.377 101.947C802.327 106.785 796.438 109.729 789.601 109.729C778.664 109.729 770.881 102.683 770.881 92.7971C770.881 86.6973 773.616 82.0698 778.664 79.7561C782.134 78.1785 786.552 77.4423 792.441 77.4423H805.377V75.9699C805.377 70.2908 801.591 66.8202 795.596 66.8202C790.338 66.8202 785.395 69.5546 781.609 74.6027L772.459 66.9253C778.664 59.4583 786.341 55.7774 795.807 55.7774ZM791.6 99.0021C799.172 99.0021 805.377 93.6385 805.377 86.9076H794.124C789.812 86.9076 787.288 87.4334 785.605 88.6955C784.238 89.642 783.502 91.1144 783.502 93.0074C783.502 96.6884 786.552 99.0021 791.6 99.0021Z"
     fill="black"
     id="path8"
     style="fill:#ffffff" />
  <path
     d="M340.914 216.261H377.198V224.359H331.975V150.74H376.146V158.838H340.914V181.555H370.887V189.653H340.914V216.261Z"
     fill="black"
     id="path9"
     style="fill:#ffffff" />
  <path
     d="M428.242 150.74H436.971V224.359H431.607L428.032 218.575C424.771 222.676 419.828 225.411 412.677 225.411C396.481 225.411 390.065 211.423 390.065 199.644C390.065 187.97 396.481 173.878 412.677 173.878C420.249 173.878 425.297 176.928 428.557 181.239L428.242 150.74ZM413.413 217.523C422.668 217.523 429.399 210.687 429.399 199.118C429.399 188.601 422.668 181.765 413.413 181.765C404.158 181.765 398.794 188.707 398.794 199.644C398.794 210.582 404.158 217.523 413.413 217.523Z"
     fill="black"
     id="path10"
     style="fill:#ffffff" />
  <path
     d="M477.814 150.74V162.94H465.614V150.74H477.814ZM476.867 216.471H495.693V224.359H449.208V216.471H468.033V182.817H451.311V174.929H476.762L476.867 216.471Z"
     fill="black"
     id="path11"
     style="fill:#ffffff" />
  <path
     d="M547.263 208.163L554.625 211.844C551.575 220.573 545.79 225.411 536.22 225.411C524.651 225.411 517.92 218.364 517.92 206.375V182.817H504.669V174.929H517.92V157.261H526.65V174.929H552.206V182.817H526.65V205.008C526.65 209.109 526.65 217.523 536.325 217.523C543.161 217.523 545.159 213.421 547.263 208.163Z"
     fill="black"
     id="path12"
     style="fill:#ffffff" />
  <path
     d="M590.314 225.411C573.697 225.411 566.861 212.265 566.861 199.118C566.861 187.024 573.697 173.878 590.314 173.878C606.931 173.878 613.767 187.024 613.767 199.118C613.767 212.265 606.931 225.411 590.314 225.411ZM590.314 217.523C599.78 217.523 605.038 210.687 605.038 199.118C605.038 188.601 599.78 181.765 590.314 181.765C580.849 181.765 575.59 188.601 575.59 199.118C575.59 210.687 580.849 217.523 590.314 217.523Z"
     fill="black"
     id="path13"
     style="fill:#ffffff" />
  <path
     d="M657.555 173.878C664.706 173.878 670.911 177.664 674.487 187.339L667.02 190.81C664.496 184.395 662.287 181.765 656.713 181.765C645.039 181.765 643.146 193.439 643.146 202.063V216.471H653.348V224.359H625.057V216.471H634.417V182.817H626.109V174.929H639.781L643.883 181.45C646.827 177.033 651.139 173.878 657.555 173.878Z"
     fill="black"
     id="path14"
     style="fill:#ffffff" />
  <rect
     width="262.924"
     height="259.419"
     rx="7"
     fill="url(#paint0_linear_915_24)"
     id="rect14" />
  <path
     d="M73.7755 64.8371L116.327 107.906H56.0918V155.03H116.189L73.6374 198.099L106.518 231.379L140.228 197.26V155.03C130.142 140.907 130.142 121.889 140.228 107.766V65.6761L106.518 31.5566L73.7755 64.8371Z"
     fill="white"
     id="path15" />
  <path
     d="M157.76 167.188V98.1641H205.129V112.424H173.651V124.308H203.61V138.667H173.651V152.928H205.129V167.188H157.76Z"
     fill="white"
     id="path16" />
  <defs
     id="defs17">
    <linearGradient
       id="paint0_linear_915_24"
       x1="262.924"
       y1="-7.94164e-06"
       x2="-1.38483e-05"
       y2="259.419"
       gradientUnits="userSpaceOnUse">
      <stop
         offset="0.239583"
         stop-color="#00D1FF"
         id="stop16" />
      <stop
         offset="1"
         stop-color="#AEFFEC"
         id="stop17" />
    </linearGradient>
  </defs>
</svg>
