<?xml version="1.0" encoding="UTF-8"?>
<svg version="1.1" xmlns="http://www.w3.org/2000/svg" width="512" height="512">
<path d="M0 0 C168.96 0 337.92 0 512 0 C512 168.96 512 337.92 512 512 C343.04 512 174.08 512 0 512 C0 343.04 0 174.08 0 0 Z " fill="#3DE1F8" transform="translate(0,0)"/>
<path d="M0 0 C4.60280812 3.8482573 8.97486574 7.83506833 13.1953125 12.09765625 C14.02831375 12.93277992 14.02831375 12.93277992 14.87814331 13.78477478 C16.6294903 15.54165085 18.37731128 17.30198554 20.125 19.0625 C21.30315033 20.24567684 22.481534 21.42862138 23.66015625 22.61132812 C26.310887 25.27197735 28.95911208 27.93509608 31.60578918 30.59977722 C32.9492846 31.94906591 34.29838926 33.29276231 35.64770508 34.63623047 C37.65757738 36.65590703 39.62478703 38.70026443 41.56640625 40.78515625 C42.21802734 41.48189453 42.86964844 42.17863281 43.54101562 42.89648438 C44.86230362 44.31224127 46.18265651 45.7288716 47.50195312 47.14648438 C48.16259766 47.85224609 48.82324219 48.55800781 49.50390625 49.28515625 C50.15901688 50.00258499 50.8141275 50.72001373 51.48908997 51.45918274 C53.98564246 54.08740289 53.98564246 54.08740289 57.02287292 56.39823914 C61.8122387 60.29416144 65.96397045 64.00994036 67.05506897 70.31495667 C67.5341376 75.39599512 67.35315211 80.45454281 67.171875 85.546875 C67.14944906 87.41296897 67.13238852 89.27913436 67.12042236 91.14532471 C67.07494554 96.01998438 66.95739747 100.8902441 66.82397461 105.76318359 C66.70045672 110.75037114 66.64625187 115.73828112 66.5859375 120.7265625 C66.45784959 130.48629175 66.2534866 140.24277785 66 150 C65.34 150.33 64.68 150.66 64 151 C60.2334393 157.94379558 57.45912902 165.50701285 55 173 C54.54753906 174.33224609 54.54753906 174.33224609 54.0859375 175.69140625 C50.39479069 188.09296959 50.49470185 203.53671767 54 216 C54.66 216.99 55.32 217.98 56 219 C56.45548885 220.48867089 56.86781186 221.99084682 57.25 223.5 C58.92733083 229.37065791 61.59995412 236.59995412 66 241 C66.09511266 243.64738089 66.12555635 246.26859001 66.11352539 248.91625977 C66.11367142 249.74545929 66.11381744 250.57465881 66.1139679 251.4289856 C66.11326851 254.18315198 66.10547493 256.93725161 66.09765625 259.69140625 C66.09579216 261.59569766 66.09436822 263.49998955 66.09336853 265.40428162 C66.08954263 270.42667963 66.07971173 275.44904892 66.06866455 280.47143555 C66.05845198 285.5922812 66.05387124 290.71313148 66.04882812 295.83398438 C66.03808953 305.88933557 66.02101224 315.9446654 66 326 C65.01 326 64.02 326 63 326 C62.79375 326.53625 62.5875 327.0725 62.375 327.625 C60.74129455 330.44685487 58.72413902 332.33740731 56.33984375 334.53515625 C54.74891301 336.07501668 54.74891301 336.07501668 54 339 C53.34 339 52.68 339 52 339 C52 339.66 52 340.32 52 341 C51.34 341 50.68 341 50 341 C50 341.66 50 342.32 50 343 C48.68 343.33 47.36 343.66 46 344 C46 344.66 46 345.32 46 346 C45.34 346 44.68 346 44 346 C44 346.66 44 347.32 44 348 C43.34 348 42.68 348 42 348 C42 348.66 42 349.32 42 350 C41.34 350 40.68 350 40 350 C39.87625 350.61875 39.7525 351.2375 39.625 351.875 C39 354 39 354 37 356 C36.01 356 35.02 356 34 356 C34 356.66 34 357.32 34 358 C33.34 358 32.68 358 32 358 C31.9175 358.5775 31.835 359.155 31.75 359.75 C30.774018 362.67794601 29.36488777 364.05244537 27 366 C26.01 366 25.02 366 24 366 C23.773125 366.53625 23.54625 367.0725 23.3125 367.625 C21.54429911 370.82460161 19.46329797 373.29037223 17 376 C16.34 376 15.68 376 15 376 C15 376.66 15 377.32 15 378 C14.34 378 13.68 378 13 378 C13 378.66 13 379.32 13 380 C12.34 380 11.68 380 11 380 C11 380.66 11 381.32 11 382 C9.34997172 383.35386936 7.6825613 384.68678142 6 386 C5.67 386.66 5.34 387.32 5 388 C4.34 388 3.68 388 3 388 C3 388.66 3 389.32 3 390 C1.234375 390.671875 1.234375 390.671875 -1 391 C-2.921875 389.890625 -2.921875 389.890625 -4.75 388.25 C-5.36359375 387.71890625 -5.9771875 387.1878125 -6.609375 386.640625 C-8 385 -8 385 -8 382 C-8.66 382 -9.32 382 -10 382 C-10 381.34 -10 380.68 -10 380 C-10.66 380 -11.32 380 -12 380 C-12 379.34 -12 378.68 -12 378 C-12.66 378 -13.32 378 -14 378 C-14 377.34 -14 376.68 -14 376 C-14.66 376 -15.32 376 -16 376 C-16 375.34 -16 374.68 -16 374 C-16.66 374 -17.32 374 -18 374 C-18 373.34 -18 372.68 -18 372 C-18.58426758 371.73952881 -19.16853516 371.47905762 -19.77050781 371.21069336 C-23.71445839 369.06898827 -26.60568414 365.72167558 -29.75 362.5625 C-30.79607422 361.5405957 -30.79607422 361.5405957 -31.86328125 360.49804688 C-32.52199219 359.83998047 -33.18070312 359.18191406 -33.859375 358.50390625 C-34.76381348 357.60393921 -34.76381348 357.60393921 -35.68652344 356.68579102 C-37 355 -37 355 -37 352 C-37.84473877 351.6453064 -37.84473877 351.6453064 -38.70654297 351.28344727 C-41.52906271 349.70392988 -43.43189874 347.77564816 -45.6953125 345.46484375 C-46.57574219 344.57345703 -47.45617187 343.68207031 -48.36328125 342.76367188 C-49.27464844 341.83103516 -50.18601563 340.89839844 -51.125 339.9375 C-52.93789615 338.09027833 -54.75289358 336.24511579 -56.5703125 334.40234375 C-57.37227051 333.58241943 -58.17422852 332.76249512 -59.00048828 331.91772461 C-60.85596361 329.9485366 -60.85596361 329.9485366 -63 329 C-63 327.68 -63 326.36 -63 325 C-62.34 325 -61.68 325 -61 325 C-61 324.34 -61 323.68 -61 323 C-60.34 323 -59.68 323 -59 323 C-59 322.34 -59 321.68 -59 321 C-58.34 321 -57.68 321 -57 321 C-57 320.34 -57 319.68 -57 319 C-56.34 319 -55.68 319 -55 319 C-54.67 318.01 -54.34 317.02 -54 316 C-53.01 316 -52.02 316 -51 316 C-51 315.34 -51 314.68 -51 314 C-50.34 314 -49.68 314 -49 314 C-49 313.34 -49 312.68 -49 312 C-48.34 312 -47.68 312 -47 312 C-46.91298828 311.42330566 -46.82597656 310.84661133 -46.73632812 310.25244141 C-45.79506576 307.37310235 -44.38955231 306.06334056 -42.21875 303.9609375 C-41.45949219 303.21585937 -40.70023438 302.47078125 -39.91796875 301.703125 C-39.12003906 300.93484375 -38.32210937 300.1665625 -37.5 299.375 C-35.92501493 297.84326977 -34.35199569 296.30951478 -32.78125 294.7734375 C-32.08064453 294.09716309 -31.38003906 293.42088867 -30.65820312 292.72412109 C-28.9199597 291.08798806 -28.9199597 291.08798806 -28 289 C-27.34 289 -26.68 289 -26 289 C-26 288.34 -26 287.68 -26 287 C-20.52380952 282 -20.52380952 282 -18 282 C-18 281.34 -18 280.68 -18 280 C-17.34 280 -16.68 280 -16 280 C-16 279.34 -16 278.68 -16 278 C-15.01 277.67 -14.02 277.34 -13 277 C-12.67 276.01 -12.34 275.02 -12 274 C-11.34 274 -10.68 274 -10 274 C-10 273.34 -10 272.68 -10 272 C-9.34 272 -8.68 272 -8 272 C-8 271.34 -8 270.68 -8 270 C-7.34 270 -6.68 270 -6 270 C-6 269.34 -6 268.68 -6 268 C-5.34 268 -4.68 268 -4 268 C-4 267.34 -4 266.68 -4 266 C-3.34 266 -2.68 266 -2 266 C-2 265.34 -2 264.68 -2 264 C-1.34 264 -0.68 264 0 264 C0 263.34 0 262.68 0 262 C0.66 262 1.32 262 2 262 C2 261.34 2 260.68 2 260 C2.66 260 3.32 260 4 260 C4 259.34 4 258.68 4 258 C4.66 258 5.32 258 6 258 C6 257.34 6 256.68 6 256 C6.61875 255.95875 7.2375 255.9175 7.875 255.875 C8.926875 255.441875 8.926875 255.441875 10 255 C10.28875 254.0925 10.5775 253.185 10.875 252.25 C12.37411065 247.9192359 14.40181414 246.75605726 18 244 C18.33 243.34 18.66 242.68 19 242 C-19.61 242 -58.22 242 -98 242 C-98 211.64 -98 181.28 -98 150 C-59.39 150 -20.78 150 19 150 C14.44172356 144.79054122 9.92216859 139.82459256 5 135 C2.24716358 132.25652697 -0.49396678 129.50188343 -3.2265625 126.73828125 C-4.35934335 125.59632277 -5.49215629 124.45439612 -6.625 123.3125 C-7.48351562 122.44141602 -7.48351562 122.44141602 -8.359375 121.55273438 C-8.91367188 120.99521484 -9.46796875 120.43769531 -10.0390625 119.86328125 C-10.53615723 119.36094971 -11.03325195 118.85861816 -11.54541016 118.34106445 C-13.16744678 116.77558067 -13.16744678 116.77558067 -16 115 C-16 114.01 -16 113.02 -16 112 C-16.66 112 -17.32 112 -18 112 C-18.33 110.68 -18.66 109.36 -19 108 C-19.57105469 107.91878906 -20.14210938 107.83757812 -20.73046875 107.75390625 C-23.71965155 106.76094191 -25.13029167 105.19722906 -27.3125 102.9375 C-28.10914063 102.11507812 -28.90578125 101.29265625 -29.7265625 100.4453125 C-32.17009478 97.81704583 -34.50411706 95.1162885 -36.828125 92.3828125 C-38.68292438 90.34787073 -40.58115428 88.41810391 -42.546875 86.4921875 C-43.18471924 85.86658936 -43.82256348 85.24099121 -44.47973633 84.59643555 C-45.77248897 83.33592515 -47.07171464 82.08201535 -48.37768555 80.83520508 C-48.97363525 80.25407959 -49.56958496 79.6729541 -50.18359375 79.07421875 C-50.72556396 78.55432373 -51.26753418 78.03442871 -51.82592773 77.4987793 C-53 76 -53 76 -53 73 C-53.66 73 -54.32 73 -55 73 C-55 72.34 -55 71.68 -55 71 C-55.763125 71.103125 -56.52625 71.20625 -57.3125 71.3125 C-60 71 -60 71 -61.875 68.75 C-63 66 -63 66 -62.9375 64 C-60.6419388 59.10280277 -57.53759983 56.69803233 -53 54 C-52.67 53.01 -52.34 52.02 -52 51 C-51.34 51 -50.68 51 -50 51 C-50 50.34 -50 49.68 -50 49 C-49.01 48.67 -48.02 48.34 -47 48 C-46.67 47.01 -46.34 46.02 -46 45 C-45.34 45 -44.68 45 -44 45 C-44 44.34 -44 43.68 -44 43 C-43.195625 42.525625 -42.39125 42.05125 -41.5625 41.5625 C-38.7081924 40.20016328 -38.7081924 40.20016328 -38 37 C-37.34 37 -36.68 37 -36 37 C-36 36.34 -36 35.68 -36 35 C-35.34 35 -34.68 35 -34 35 C-34 34.34 -34 33.68 -34 33 C-33.34 33 -32.68 33 -32 33 C-32 32.34 -32 31.68 -32 31 C-31.34 31 -30.68 31 -30 31 C-30 30.34 -30 29.68 -30 29 C-29.34 29 -28.68 29 -28 29 C-28 28.34 -28 27.68 -28 27 C-27.34 27 -26.68 27 -26 27 C-26 26.34 -26 25.68 -26 25 C-25.34 25 -24.68 25 -24 25 C-24 24.34 -24 23.68 -24 23 C-23.34 23 -22.68 23 -22 23 C-21.67322266 22.18789062 -21.67322266 22.18789062 -21.33984375 21.359375 C-19.54282322 18.19494235 -17.12308677 15.79389454 -14.5625 13.25 C-14.07201172 12.74339844 -13.58152344 12.23679687 -13.07617188 11.71484375 C-11.77715039 10.4140692 -10.39254877 9.20011632 -9 8 C-8.01 8 -7.02 8 -6 8 C-5.7525 7.4225 -5.505 6.845 -5.25 6.25 C-3.83316683 3.6997003 -2.12372463 1.98214299 0 0 Z " fill="#FDFEFE" transform="translate(207,63)"/>
<path d="M0 0 C30.36 0 60.72 0 92 0 C92 9.57 92 19.14 92 29 C72.2 29 52.4 29 32 29 C32 36.26 32 43.52 32 51 C51.14 51 70.28 51 90 51 C90 60.9 90 70.8 90 81 C70.86 81 51.72 81 32 81 C32 89.91 32 98.82 32 108 C51.8 108 71.6 108 92 108 C92 117.24 92 126.48 92 136 C61.64 136 31.28 136 0 136 C0 91.12 0 46.24 0 0 Z " fill="#F7FDFE" transform="translate(307,193)"/>
<path d="M0 0 C30.03 0 60.06 0 91 0 C91 8.91 91 17.82 91 27 C70.87 27 50.74 27 30 27 C30 34.92 30 42.84 30 51 C49.14 51 68.28 51 88 51 C88 60.24 88 69.48 88 79 C68.86 79 49.72 79 30 79 C30 78.34 30 77.68 30 77 C48.48 77 66.96 77 86 77 C86 69.08 86 61.16 86 53 C67.19 53 48.38 53 29 53 C27.98744967 49.96234901 27.87099412 47.88837779 27.8671875 44.7109375 C27.86589844 43.68742187 27.86460937 42.66390625 27.86328125 41.609375 C27.86714844 40.54203125 27.87101562 39.4746875 27.875 38.375 C27.86919922 36.76238281 27.86919922 36.76238281 27.86328125 35.1171875 C27.86457031 34.09625 27.86585938 33.0753125 27.8671875 32.0234375 C27.86831543 31.08419434 27.86944336 30.14495117 27.87060547 29.17724609 C28 27 28 27 29 26 C30.90243762 25.90608704 32.80838459 25.88256342 34.71313477 25.88647461 C35.9343251 25.88655014 37.15551544 25.88662567 38.41371155 25.88670349 C39.75627686 25.89181089 41.09884175 25.89702689 42.44140625 25.90234375 C43.80761158 25.90420801 45.17381757 25.90563187 46.5400238 25.90663147 C50.14201695 25.91045606 53.74397 25.92028583 57.34594727 25.93133545 C61.01903745 25.94155084 64.69213409 25.94612936 68.36523438 25.95117188 C75.57684334 25.96190816 82.78841095 25.97950447 90 26 C90 17.75 90 9.5 90 1 C60.3 1 30.6 1 0 1 C0 0.67 0 0.34 0 0 Z " fill="#D5F8FE" transform="translate(308,194)"/>
<path d="M0 0 C0.495 0.99 0.495 0.99 1 2 C-37.61 2 -76.22 2 -116 2 C-116 32.36 -116 62.72 -116 94 C-77.39 94 -38.78 94 1 94 C-1 98 -1 98 -3.5 99.9375 C-6.17293742 101.80418499 -6.17293742 101.80418499 -7.0625 104.6875 C-7.5265625 105.8321875 -7.5265625 105.8321875 -8 107 C-10.125 107.8125 -10.125 107.8125 -12 108 C-12 108.66 -12 109.32 -12 110 C-12.66 110 -13.32 110 -14 110 C-14 110.66 -14 111.32 -14 112 C-14.66 112 -15.32 112 -16 112 C-16 112.66 -16 113.32 -16 114 C-16.66 114 -17.32 114 -18 114 C-18 114.66 -18 115.32 -18 116 C-18.66 116 -19.32 116 -20 116 C-20 116.66 -20 117.32 -20 118 C-20.66 118 -21.32 118 -22 118 C-22 118.66 -22 119.32 -22 120 C-22.66 120 -23.32 120 -24 120 C-24 120.66 -24 121.32 -24 122 C-24.66 122 -25.32 122 -26 122 C-26 122.66 -26 123.32 -26 124 C-26.66 124 -27.32 124 -28 124 C-28 124.66 -28 125.32 -28 126 C-28.66 126 -29.32 126 -30 126 C-30.33 127.32 -30.66 128.64 -31 130 C-31.99 130 -32.98 130 -34 130 C-34 130.66 -34 131.32 -34 132 C-34.66 132 -35.32 132 -36 132 C-36 132.66 -36 133.32 -36 134 C-41.47619048 139 -41.47619048 139 -44 139 C-44 138.34 -44 137.68 -44 137 C-43.34 137 -42.68 137 -42 137 C-42 136.34 -42 135.68 -42 135 C-40.37897032 133.28891311 -38.70496537 131.62746694 -37 130 C-36.278125 129.236875 -35.55625 128.47375 -34.8125 127.6875 C-33 126 -33 126 -31 126 C-30.73832031 125.41089844 -30.47664063 124.82179688 -30.20703125 124.21484375 C-28.9357725 121.88214566 -27.59769469 120.39645632 -25.6875 118.5625 C-25.06617188 117.95792969 -24.44484375 117.35335937 -23.8046875 116.73046875 C-23.20914063 116.15941406 -22.61359375 115.58835937 -22 115 C-19.51457955 112.57238003 -17.19067315 110.24602987 -15.0625 107.5 C-13.3671572 105.44503903 -11.85492025 103.97075073 -9.8125 102.3125 C-6.98352767 100.30609749 -6.98352767 100.30609749 -6 98 C-4.68 97.34 -3.36 96.68 -2 96 C-39.95 95.67 -77.9 95.34 -117 95 C-117 63.98 -117 32.96 -117 1 C-78.39 0.67 -39.78 0.34 0 0 Z " fill="#91EFF8" transform="translate(225,211)"/>
<path d="M0 0 C0.66 0 1.32 0 2 0 C0.58288975 3.24019858 -1.12208615 5.33720625 -3.66015625 7.78515625 C-4.37107422 8.48060547 -5.08199219 9.17605469 -5.81445312 9.89257812 C-6.55630859 10.60865234 -7.29816406 11.32472656 -8.0625 12.0625 C-9.53713498 13.48615365 -11.00740572 14.91434578 -12.47265625 16.34765625 C-13.12500244 16.97679932 -13.77734863 17.60594238 -14.44946289 18.25415039 C-16.22691833 20.02487465 -16.22691833 20.02487465 -17 23 C-17.66 23 -18.32 23 -19 23 C-19 23.66 -19 24.32 -19 25 C-19.66 25 -20.32 25 -21 25 C-21 25.66 -21 26.32 -21 27 C-21.99 27.33 -22.98 27.66 -24 28 C-24.33 28.66 -24.66 29.32 -25 30 C-25.66 30 -26.32 30 -27 30 C-27 30.66 -27 31.32 -27 32 C-27.66 32 -28.32 32 -29 32 C-29 32.66 -29 33.32 -29 34 C-29.66 34 -30.32 34 -31 34 C-31 34.66 -31 35.32 -31 36 C-31.66 36 -32.32 36 -33 36 C-33 37.32 -33 38.64 -33 40 C-32.43684082 40.2364624 -31.87368164 40.4729248 -31.29345703 40.71655273 C-28.47093729 42.29607012 -26.56810126 44.22435184 -24.3046875 46.53515625 C-22.98404297 47.87223633 -22.98404297 47.87223633 -21.63671875 49.23632812 C-20.72535156 50.16896484 -19.81398437 51.10160156 -18.875 52.0625 C-17.06210385 53.90972167 -15.24710642 55.75488421 -13.4296875 57.59765625 C-12.62772949 58.41758057 -11.82577148 59.23750488 -10.99951172 60.08227539 C-9.14403639 62.0514634 -9.14403639 62.0514634 -7 63 C-6.41412109 64.04414063 -6.41412109 64.04414063 -5.81640625 65.109375 C-3.35391521 69.02817794 -0.2299058 72.02123174 3.0625 75.25 C3.69994141 75.88679688 4.33738281 76.52359375 4.99414062 77.1796875 C8.19846782 80.49250036 8.19846782 80.49250036 12 83 C12 83.66 12 84.32 12 85 C12.66 85 13.32 85 14 85 C14 85.66 14 86.32 14 87 C14.66 87 15.32 87 16 87 C16 87.66 16 88.32 16 89 C16.66 89 17.32 89 18 89 C18 89.66 18 90.32 18 91 C18.66 91 19.32 91 20 91 C20 91.66 20 92.32 20 93 C20.66 93 21.32 93 22 93 C22.33 93.99 22.66 94.98 23 96 C27.25378421 100.22385132 27.25378421 100.22385132 33 101 C33 100.34 33 99.68 33 99 C33.66 99 34.32 99 35 99 C35.2475 98.38125 35.495 97.7625 35.75 97.125 C37.20628639 94.64931313 38.37812506 94.04874998 41 93 C41 92.34 41 91.68 41 91 C41.66 91 42.32 91 43 91 C43 90.34 43 89.68 43 89 C43.66 89 44.32 89 45 89 C45 88.34 45 87.68 45 87 C45.66 87 46.32 87 47 87 C47.226875 86.46375 47.45375 85.9275 47.6875 85.375 C49.95634724 81.2694669 52.56810976 77.85231562 56.625 75.4375 C59.47399586 73.71310777 60.38090037 71.85269935 62 69 C62.66 69 63.32 69 64 69 C64 68.34 64 67.68 64 67 C64.804375 66.525625 65.60875 66.05125 66.4375 65.5625 C69.2918076 64.20016328 69.2918076 64.20016328 70 61 C70.66 61 71.32 61 72 61 C72 60.34 72 59.68 72 59 C72.66 59 73.32 59 74 59 C74 58.34 74 57.68 74 57 C74.66 57 75.32 57 76 57 C76 56.34 76 55.68 76 55 C77.32 54.67 78.64 54.34 80 54 C80 53.34 80 52.68 80 52 C80.66 52 81.32 52 82 52 C82 51.34 82 50.68 82 50 C82.66 50 83.32 50 84 50 C84.103125 49.38125 84.20625 48.7625 84.3125 48.125 C85 46 85 46 88 44 C87.48982104 48.15476425 86.43492216 50.04445495 83.4296875 52.92578125 C82.6975 53.64056641 81.9653125 54.35535156 81.2109375 55.09179688 C80.05464844 56.19104492 80.05464844 56.19104492 78.875 57.3125 C72.64968052 63.27872451 72.64968052 63.27872451 66.84375 69.64453125 C61.1742226 76.25843573 54.81295044 82.25249754 48.625 88.375 C46.0726617 90.90078437 43.5236364 93.42984577 40.9765625 95.9609375 C40.39121735 96.53798431 39.80587219 97.11503113 39.20278931 97.70956421 C36.2338649 100.57428787 36.2338649 100.57428787 34 104 C31.69873047 104.84741211 31.69873047 104.84741211 29 105 C26.89111328 103.58813477 26.89111328 103.58813477 24.8203125 101.44140625 C24.05589844 100.66216797 23.29148438 99.88292969 22.50390625 99.08007812 C21.71886719 98.24927734 20.93382812 97.41847656 20.125 96.5625 C19.34769531 95.76650391 18.57039063 94.97050781 17.76953125 94.15039062 C13.58389154 89.83460918 9.57480423 85.39863626 5.64404297 80.85131836 C3.05630309 77.93732497 0.28632012 75.22240212 -2.5 72.5 C-6.66556971 68.38660367 -10.66288862 64.21757279 -14.46484375 59.76171875 C-18.38158047 55.26693946 -22.69471707 51.22288514 -27.1875 47.3125 C-28.18136719 46.44431641 -28.18136719 46.44431641 -29.1953125 45.55859375 C-30.63661806 44.31382986 -32.09656092 43.0906568 -33.5625 41.875 C-35 40 -35 40 -34.75 37.25 C-34.5025 36.5075 -34.255 35.765 -34 35 C-33.34 35 -32.68 35 -32 35 C-32 34.34 -32 33.68 -32 33 C-31.34 33 -30.68 33 -30 33 C-30 32.34 -30 31.68 -30 31 C-29.34 31 -28.68 31 -28 31 C-28 30.34 -28 29.68 -28 29 C-27.34 29 -26.68 29 -26 29 C-25.34 27.68 -24.68 26.36 -24 25 C-23.34 25 -22.68 25 -22 25 C-22 24.34 -22 23.68 -22 23 C-21.34 23 -20.68 23 -20 23 C-20 22.34 -20 21.68 -20 21 C-19.34 21 -18.68 21 -18 21 C-18 20.01 -18 19.02 -18 18 C-17.34 18 -16.68 18 -16 18 C-16 17.34 -16 16.68 -16 16 C-14.50390625 14.5625 -14.50390625 14.5625 -12.5625 13 C-9.84811762 10.85474956 -9.84811762 10.85474956 -8 8 C-7.34 8 -6.68 8 -6 8 C-6 7.34 -6 6.68 -6 6 C-4.34997172 4.64613064 -2.6825613 3.31321858 -1 2 C-0.67 1.34 -0.34 0.68 0 0 Z " fill="#A2F4F6" transform="translate(177,352)"/>
<path d="M0 0 C0.66 0 1.32 0 2 0 C2.11585964 10.99615656 2.20469815 21.99216787 2.25906086 32.98881054 C2.28515264 38.09505462 2.32054329 43.20088106 2.37719727 48.30688477 C2.43153163 53.23467932 2.46142369 58.16207221 2.47438622 63.0901432 C2.48362352 64.97005855 2.50166208 66.84995196 2.52865028 68.72969627 C2.56496015 71.36349324 2.56994464 73.99563161 2.56762695 76.62963867 C2.59459152 77.79489326 2.59459152 77.79489326 2.62210083 78.98368835 C2.58391508 82.9952901 2.16608796 84.790789 -0.35969543 87.97236633 C-3.05127105 90.03937383 -4.65633058 90.71339976 -8 91 C-7.24172908 89.82512964 -6.46792245 88.66027408 -5.6875 87.5 C-5.04361328 86.52546875 -5.04361328 86.52546875 -4.38671875 85.53125 C-3.70029297 84.77328125 -3.70029297 84.77328125 -3 84 C-2.01 84 -1.02 84 0 84 C0 56.28 0 28.56 0 0 Z " fill="#6DEAF8" transform="translate(273,305)"/>
<path d="M0 0 C2 1.375 2 1.375 4 3 C4 3.66 4 4.32 4 5 C-34.28 5 -72.56 5 -112 5 C-111.67 4.34 -111.34 3.68 -111 3 C-101.52084799 2.9690657 -92.04169363 2.94890623 -82.5625 2.9375 C-81.85617809 2.93664398 -81.14985619 2.93578796 -80.42213058 2.93490601 C-53.27131624 2.90587283 -26.14216415 3.28777628 1 4 C0.505 2.02 0.505 2.02 0 0 Z " fill="#5AE7F7" transform="translate(221,207)"/>
<path d="M0 0 C0.72460938 1.74707031 0.72460938 1.74707031 1 4 C-0.42773438 5.97949219 -0.42773438 5.97949219 -2.59375 8.046875 C-3.3775 8.81 -4.16125 9.573125 -4.96875 10.359375 C-6.22171875 11.54273438 -6.22171875 11.54273438 -7.5 12.75 C-9.11698726 14.30479544 -10.73159844 15.86206603 -12.34375 17.421875 C-13.54535767 18.58396484 -13.54535767 18.58396484 -14.77124023 19.76953125 C-16.69822837 21.69799697 -18.48991451 23.65850974 -20.25390625 25.734375 C-25.61300202 31.99938716 -31.59105415 37.69555789 -37.4375 43.5 C-38.6584369 44.71591114 -39.87914192 45.93205516 -41.09960938 47.1484375 C-44.06374013 50.10164966 -47.03098958 53.05169398 -50 56 C-50 53 -50 53 -48.5625 51.5 C-48.046875 51.005 -47.53125 50.51 -47 50 C-46.67 49.01 -46.34 48.02 -46 47 C-45.34 47 -44.68 47 -44 47 C-44 46.34 -44 45.68 -44 45 C-43.34 45 -42.68 45 -42 45 C-42 44.34 -42 43.68 -42 43 C-41.34 43 -40.68 43 -40 43 C-39.773125 42.46375 -39.54625 41.9275 -39.3125 41.375 C-37.04365276 37.2694669 -34.43189024 33.85231562 -30.375 31.4375 C-27.52600414 29.71310777 -26.61909963 27.85269935 -25 25 C-24.34 25 -23.68 25 -23 25 C-23 24.34 -23 23.68 -23 23 C-22.195625 22.525625 -21.39125 22.05125 -20.5625 21.5625 C-17.7081924 20.20016328 -17.7081924 20.20016328 -17 17 C-16.34 17 -15.68 17 -15 17 C-15 16.34 -15 15.68 -15 15 C-14.34 15 -13.68 15 -13 15 C-13 14.34 -13 13.68 -13 13 C-12.34 13 -11.68 13 -11 13 C-11 12.34 -11 11.68 -11 11 C-9.68 10.67 -8.36 10.34 -7 10 C-7 9.34 -7 8.68 -7 8 C-6.34 8 -5.68 8 -5 8 C-5 7.34 -5 6.68 -5 6 C-4.34 6 -3.68 6 -3 6 C-2.814375 5.071875 -2.814375 5.071875 -2.625 4.125 C-2 2 -2 2 0 0 Z " fill="#92F1F6" transform="translate(264,396)"/>
<path d="M0 0 C0.66 0 1.32 0 2 0 C0.58288975 3.24019858 -1.12208615 5.33720625 -3.66015625 7.78515625 C-4.37107422 8.48060547 -5.08199219 9.17605469 -5.81445312 9.89257812 C-6.55630859 10.60865234 -7.29816406 11.32472656 -8.0625 12.0625 C-9.53713498 13.48615365 -11.00740572 14.91434578 -12.47265625 16.34765625 C-13.12500244 16.97679932 -13.77734863 17.60594238 -14.44946289 18.25415039 C-16.22691833 20.02487465 -16.22691833 20.02487465 -17 23 C-17.66 23 -18.32 23 -19 23 C-19 23.66 -19 24.32 -19 25 C-19.66 25 -20.32 25 -21 25 C-21 25.66 -21 26.32 -21 27 C-21.99 27.33 -22.98 27.66 -24 28 C-24.33 28.66 -24.66 29.32 -25 30 C-25.66 30 -26.32 30 -27 30 C-27 30.66 -27 31.32 -27 32 C-27.66 32 -28.32 32 -29 32 C-29 32.66 -29 33.32 -29 34 C-29.66 34 -30.32 34 -31 34 C-31 34.66 -31 35.32 -31 36 C-31.66 36 -32.32 36 -33 36 C-33 37.32 -33 38.64 -33 40 C-32.1646875 40.3403125 -32.1646875 40.3403125 -31.3125 40.6875 C-28.36753316 42.35896766 -26.31843456 44.55276352 -24 47 C-24.33 47.99 -24.66 48.98 -25 50 C-26.70509716 48.45672226 -28.3886674 46.8896325 -30.0625 45.3125 C-31.00222656 44.44238281 -31.94195312 43.57226562 -32.91015625 42.67578125 C-35 40 -35 40 -34.80859375 37.16796875 C-34.54175781 36.45253906 -34.27492187 35.73710937 -34 35 C-33.34 35 -32.68 35 -32 35 C-32 34.34 -32 33.68 -32 33 C-31.34 33 -30.68 33 -30 33 C-30 32.34 -30 31.68 -30 31 C-29.34 31 -28.68 31 -28 31 C-28 30.34 -28 29.68 -28 29 C-27.34 29 -26.68 29 -26 29 C-25.34 27.68 -24.68 26.36 -24 25 C-23.34 25 -22.68 25 -22 25 C-22 24.34 -22 23.68 -22 23 C-21.34 23 -20.68 23 -20 23 C-20 22.34 -20 21.68 -20 21 C-19.34 21 -18.68 21 -18 21 C-18 20.01 -18 19.02 -18 18 C-17.34 18 -16.68 18 -16 18 C-16 17.34 -16 16.68 -16 16 C-14.50390625 14.5625 -14.50390625 14.5625 -12.5625 13 C-9.84811762 10.85474956 -9.84811762 10.85474956 -8 8 C-7.34 8 -6.68 8 -6 8 C-6 7.34 -6 6.68 -6 6 C-4.34997172 4.64613064 -2.6825613 3.31321858 -1 2 C-0.67 1.34 -0.34 0.68 0 0 Z " fill="#8EF1F5" transform="translate(177,352)"/>
<path d="M0 0 C0.73120117 1.73828125 0.73120117 1.73828125 1 4 C-0.4753418 6.04296875 -0.4753418 6.04296875 -2.69921875 8.1875 C-3.49650391 8.96867187 -4.29378906 9.74984375 -5.11523438 10.5546875 C-5.96408203 11.36164063 -6.81292969 12.16859375 -7.6875 13 C-8.51701172 13.80695313 -9.34652344 14.61390625 -10.20117188 15.4453125 C-11.75443308 16.95497776 -13.31276575 18.45945467 -14.87768555 19.95703125 C-16.94445375 21.94653043 -18.97798742 23.96512657 -21 26 C-20.35494404 22.51669784 -19.01782732 19.90567134 -17 17 C-16.34 17 -15.68 17 -15 17 C-15 16.34 -15 15.68 -15 15 C-14.34 15 -13.68 15 -13 15 C-13 14.34 -13 13.68 -13 13 C-12.34 13 -11.68 13 -11 13 C-11 12.34 -11 11.68 -11 11 C-9.68 10.67 -8.36 10.34 -7 10 C-7 9.34 -7 8.68 -7 8 C-6.34 8 -5.68 8 -5 8 C-5 7.34 -5 6.68 -5 6 C-4.34 6 -3.68 6 -3 6 C-2.87625 5.38125 -2.7525 4.7625 -2.625 4.125 C-2 2 -2 2 0 0 Z " fill="#8AEFF7" transform="translate(264,396)"/>
<path d="M0 0 C0.33 0.66 0.66 1.32 1 2 C0.67 2.66 0.34 3.32 0 4 C-0.66 4 -1.32 4 -2 4 C-2 4.66 -2 5.32 -2 6 C-2.66 6 -3.32 6 -4 6 C-4 6.66 -4 7.32 -4 8 C-4.66 8 -5.32 8 -6 8 C-6 8.66 -6 9.32 -6 10 C-6.66 10 -7.32 10 -8 10 C-8 10.66 -8 11.32 -8 12 C-8.66 12 -9.32 12 -10 12 C-10 12.66 -10 13.32 -10 14 C-10.66 14 -11.32 14 -12 14 C-12.07476562 14.56203125 -12.14953125 15.1240625 -12.2265625 15.703125 C-13.27821627 18.82621803 -15.04378707 20.44142021 -17.375 22.75 C-18.16648438 23.54921875 -18.95796875 24.3484375 -19.7734375 25.171875 C-22 27 -22 27 -25 27 C-25 26.34 -25 25.68 -25 25 C-24.34 25 -23.68 25 -23 25 C-23 24.34 -23 23.68 -23 23 C-22.195625 22.525625 -21.39125 22.05125 -20.5625 21.5625 C-17.7081924 20.20016328 -17.7081924 20.20016328 -17 17 C-16.34 17 -15.68 17 -15 17 C-15 16.34 -15 15.68 -15 15 C-14.34 15 -13.68 15 -13 15 C-13 14.34 -13 13.68 -13 13 C-12.34 13 -11.68 13 -11 13 C-11 12.34 -11 11.68 -11 11 C-10.34 11 -9.68 11 -9 11 C-9 10.34 -9 9.68 -9 9 C-8.34 9 -7.68 9 -7 9 C-7 8.34 -7 7.68 -7 7 C-6.34 7 -5.68 7 -5 7 C-5 6.34 -5 5.68 -5 5 C-4.34 5 -3.68 5 -3 5 C-3 4.34 -3 3.68 -3 3 C-2.34 3 -1.68 3 -1 3 C-0.67 2.01 -0.34 1.02 0 0 Z " fill="#B1F2FD" transform="translate(186,83)"/>
<path d="M0 0 C2.04795423 1.9626228 2.94976638 3.4277307 3.19921875 6.26953125 C3.18858877 8.51954383 3.12958525 10.75385562 3 13 C3.66 13 4.32 13 5 13 C5.33 15.97 5.66 18.94 6 22 C3.49230175 19.49230175 3.03927163 17.37763279 2 14 C1.62875 13.05125 1.2575 12.1025 0.875 11.125 C-0.21276244 7.24013414 -0.13876384 4.0241513 0 0 Z " fill="#6BE8F9" transform="translate(259,267)"/>
<path d="M0 0 C0.66 0.33 1.32 0.66 2 1 C0.625 3.5 0.625 3.5 -1 6 C-1.66 6 -2.32 6 -3 6 C-3 6.66 -3 7.32 -3 8 C-8.47619048 13 -8.47619048 13 -11 13 C-11 12.34 -11 11.68 -11 11 C-10.34 11 -9.68 11 -9 11 C-9 10.34 -9 9.68 -9 9 C-7.37897032 7.28891311 -5.70496537 5.62746694 -4 4 C-3.236875 3.236875 -2.47375 2.47375 -1.6875 1.6875 C-1.130625 1.130625 -0.57375 0.57375 0 0 Z " fill="#7EEEF6" transform="translate(192,337)"/>
<path d="M0 0 C0.66 0.33 1.32 0.66 2 1 C1.505 1.33 1.01 1.66 0.5 2 C-1.88179561 5.17572747 -1.19168226 8.10246066 -1 12 C-0.34 12 0.32 12 1 12 C1 12.66 1 13.32 1 14 C0.01 14 -0.98 14 -2 14 C-3.82929763 11.6480459 -5.03249935 10.03997928 -4.9375 7 C-3.67829259 4.31369086 -1.92850106 2.23954962 0 0 Z " fill="#A2F0FC" transform="translate(149,120)"/>
<path d="M0 0 C0.33 0 0.66 0 1 0 C1 2.31 1 4.62 1 7 C-1.97 7 -4.94 7 -8 7 C-6.68 6.67 -5.36 6.34 -4 6 C-4 5.34 -4 4.68 -4 4 C-3.34 4 -2.68 4 -2 4 C-2 3.34 -2 2.68 -2 2 C-1.34 2 -0.68 2 0 2 C0 1.34 0 0.68 0 0 Z " fill="#000000" transform="translate(511,505)"/>
<path d="M0 0 C0.66 0.33 1.32 0.66 2 1 C0.73861805 2.34227818 -0.53444559 3.67358677 -1.8125 5 C-2.52019531 5.7425 -3.22789062 6.485 -3.95703125 7.25 C-6 9 -6 9 -9 9 C-9 8.34 -9 7.68 -9 7 C-8.34 7 -7.68 7 -7 7 C-7 6.34 -7 5.68 -7 5 C-5.35666496 3.96210419 -3.68756133 2.96432076 -2 2 C-1.34 1.34 -0.68 0.68 0 0 Z " fill="#D1F7FD" transform="translate(170,101)"/>
<path d="M0 0 C0.33 1.32 0.66 2.64 1 4 C2.32 4 3.64 4 5 4 C5 4.66 5 5.32 5 6 C6.32 6.33 7.64 6.66 9 7 C6.03 7 3.06 7 0 7 C0 4.69 0 2.38 0 0 Z " fill="#000000" transform="translate(0,505)"/>
<path d="M0 0 C0.66 0.33 1.32 0.66 2 1 C0.02 3.31 -1.96 5.62 -4 8 C-4.33 7.01 -4.66 6.02 -5 5 C-3.35 3.35 -1.7 1.7 0 0 Z " fill="#71ECF4" transform="translate(248,414)"/>
<path d="M0 0 C0.33 0.99 0.66 1.98 1 3 C-0.65 4.65 -2.3 6.3 -4 8 C-4.99 7.67 -5.98 7.34 -7 7 C-4.69 4.69 -2.38 2.38 0 0 Z " fill="#DDFAFB" transform="translate(173,359)"/>
<path d="M0 0 C0.33 0.66 0.66 1.32 1 2 C-0.375 3.5 -0.375 3.5 -2 5 C-2.66 5 -3.32 5 -4 5 C-4 5.66 -4 6.32 -4 7 C-4.66 7 -5.32 7 -6 7 C-6 7.66 -6 8.32 -6 9 C-6.66 8.67 -7.32 8.34 -8 8 C-7.3125 6.0625 -7.3125 6.0625 -6 4 C-3.375 3.25 -3.375 3.25 -1 3 C-0.67 2.01 -0.34 1.02 0 0 Z " fill="#ADF3FA" transform="translate(217,314)"/>
<path d="M0 0 C0.66 0.33 1.32 0.66 2 1 C1.3125 3.4375 1.3125 3.4375 0 6 C-2.625 6.8125 -2.625 6.8125 -5 7 C-3.35 4.69 -1.7 2.38 0 0 Z " fill="#9FF1F9" transform="translate(270,389)"/>
</svg>
