<svg width="16" height="16" viewBox="0 0 16 16" fill="none" xmlns="http://www.w3.org/2000/svg">
<path d="M4.47869 5.99921C4.47869 5.73411 4.26379 5.51921 3.99869 5.51921C3.7336 5.51921 3.51869 5.73411 3.51869 5.99921H4.47869ZM12.482 5.99921C12.482 5.73411 12.2671 5.51921 12.002 5.51921C11.7369 5.51921 11.522 5.73411 11.522 5.99921H12.482ZM9.81434 6.66615C9.81434 6.40105 9.59943 6.18615 9.33434 6.18615C9.06924 6.18615 8.85434 6.40105 8.85434 6.66615H9.81434ZM8.85434 11.3348C8.85434 11.5999 9.06924 11.8148 9.33434 11.8148C9.59943 11.8148 9.81434 11.5999 9.81434 11.3348H8.85434ZM7.14642 6.66615C7.14642 6.40105 6.93152 6.18615 6.66642 6.18615C6.40133 6.18615 6.18642 6.40105 6.18642 6.66615H7.14642ZM6.18642 11.3348C6.18642 11.5999 6.40133 11.8148 6.66642 11.8148C6.93152 11.8148 7.14642 11.5999 7.14642 11.3348H6.18642ZM2.99826 3.51839C2.73316 3.51839 2.51826 3.73329 2.51826 3.99839C2.51826 4.26349 2.73316 4.47839 2.99826 4.47839V3.51839ZM13.0024 4.47839C13.2675 4.47839 13.4824 4.26349 13.4824 3.99839C13.4824 3.73329 13.2675 3.51839 13.0024 3.51839V4.47839ZM4.87715 3.84658C4.79332 4.09808 4.92923 4.36991 5.18073 4.45374C5.43222 4.53757 5.70405 4.40165 5.78788 4.15016L4.87715 3.84658ZM5.69533 2.90992L6.1507 3.06171L6.15074 3.0616L5.69533 2.90992ZM6.96119 1.99754L6.96108 2.47754H6.96119V1.99754ZM9.03939 1.99754V2.47754L9.03999 2.47754L9.03939 1.99754ZM10.3066 2.90992L10.7621 2.75863L10.762 2.75824L10.3066 2.90992ZM10.2125 4.14966C10.2961 4.40124 10.5678 4.53746 10.8194 4.45391C11.0709 4.37035 11.2072 4.09867 11.1236 3.84708L10.2125 4.14966ZM3.51869 5.99921V12.6686H4.47869V5.99921H3.51869ZM3.51869 12.6686C3.51869 13.6704 4.3308 14.4825 5.33258 14.4825V13.5225C4.86099 13.5225 4.47869 13.1402 4.47869 12.6686H3.51869ZM5.33258 14.4825H10.6681V13.5225H5.33258V14.4825ZM10.6681 14.4825C11.6699 14.4825 12.482 13.6704 12.482 12.6686H11.522C11.522 13.1402 11.1397 13.5225 10.6681 13.5225V14.4825ZM12.482 12.6686V5.99921H11.522V12.6686H12.482ZM8.85434 6.66615V11.3348H9.81434V6.66615H8.85434ZM6.18642 6.66615V11.3348H7.14642V6.66615H6.18642ZM2.99826 4.47839H13.0024V3.51839H2.99826V4.47839ZM5.78788 4.15016L6.1507 3.06171L5.23997 2.75813L4.87715 3.84658L5.78788 4.15016ZM6.15074 3.0616C6.26693 2.71275 6.59339 2.47745 6.96108 2.47754L6.96131 1.51754C6.18024 1.51735 5.48675 2.01719 5.23993 2.75824L6.15074 3.0616ZM6.96119 2.47754H9.03939V1.51754H6.96119V2.47754ZM9.03999 2.47754C9.40799 2.47708 9.73489 2.71245 9.85118 3.0616L10.762 2.75824C10.515 2.01655 9.82054 1.51657 9.0388 1.51754L9.03999 2.47754ZM9.85105 3.06121L10.2125 4.14966L11.1236 3.84708L10.7621 2.75863L9.85105 3.06121Z" fill="#FF403F"/>
</svg>
