<svg width="16" height="16" viewBox="0 0 16 16" fill="none" xmlns="http://www.w3.org/2000/svg">
<path d="M7.3335 9.99967H8.66683C9.7715 9.99967 10.6668 9.10434 10.6668 7.99967V5.33301C10.6668 4.22834 9.7715 3.33301 8.66683 3.33301H3.3335C2.22883 3.33301 1.3335 4.22834 1.3335 5.33301V7.99967C1.3335 9.10434 2.22883 9.99967 3.3335 9.99967" stroke="#D1D4DB" stroke-linecap="round" stroke-linejoin="round"/>
<path d="M8.66683 6H7.3335C6.22883 6 5.3335 6.89533 5.3335 8V10.6667C5.3335 11.7713 6.22883 12.6667 7.3335 12.6667H12.6668C13.7715 12.6667 14.6668 11.7713 14.6668 10.6667V8C14.6668 6.89533 13.7715 6 12.6668 6V6" stroke="#D1D4DB" stroke-linecap="round" stroke-linejoin="round"/>
</svg>
