<svg width="16" height="16" viewBox="0 0 16 16" fill="none" xmlns="http://www.w3.org/2000/svg">
<path d="M5.5 7L3.5 13H12.5L14 8.5V7.5L13 7H5.5Z" fill="#A1A8A9"/>
<path d="M12.6667 6.65885V5.99219C12.6667 5.25552 12.07 4.65885 11.3333 4.65885H8.35667C8.134 4.65885 7.92533 4.54752 7.802 4.36219L6.86467 2.95618C6.74067 2.77018 6.53267 2.65885 6.31 2.65885H3.33333C2.59667 2.65885 2 3.25552 2 3.99218V12.5609C2 12.9835 2.342 13.3255 2.76467 13.3255M2.76467 13.3255C3.102 13.3255 3.4 13.1042 3.49667 12.7809L5.048 7.60952C5.21733 7.04485 5.73667 6.65885 6.32533 6.65885H12.886C13.776 6.65885 14.416 7.51352 14.1653 8.36752L12.9913 12.3675C12.8247 12.9355 12.304 13.3255 11.712 13.3255H2.76467Z" stroke="#A1A8A9" stroke-linecap="round" stroke-linejoin="round"/>
</svg>
