<svg width="16" height="16" viewBox="0 0 16 16" fill="none" xmlns="http://www.w3.org/2000/svg">
<path d="M13.2375 8.67307C13.8916 9.32711 14.0873 10.3108 13.7334 11.1654C13.3794 12.02 12.5455 12.5773 11.6205 12.5773C10.6954 12.5773 9.86151 12.02 9.50756 11.1654C9.1536 10.3108 9.34932 9.32711 10.0034 8.67307C10.8968 7.78085 12.3441 7.78085 13.2375 8.67307" stroke="#717879" stroke-linecap="round" stroke-linejoin="round"/>
<path d="M14.6695 13.3375L13.2369 11.9049" stroke="#717879" stroke-linecap="round" stroke-linejoin="round"/>
<path d="M14.0025 6.66731V3.99953C14.0025 2.8945 13.1067 1.9987 12.0017 1.9987H3.99833C2.8933 1.9987 1.9975 2.8945 1.9975 3.99953V12.0029C1.9975 13.1079 2.8933 14.0037 3.99833 14.0037H9.05911" stroke="#717879" stroke-linecap="round" stroke-linejoin="round"/>
<path d="M5.99924 1.9987V14.0037" stroke="#717879" stroke-linecap="round" stroke-linejoin="round"/>
</svg>
