<svg width="25" height="24" viewBox="0 0 25 24" fill="none" xmlns="http://www.w3.org/2000/svg">
<path d="M1.85938 20.9999V20.9999C1.85938 19.0009 3.47938 17.3809 5.47837 17.3809H9.09737C11.0964 17.3809 12.7164 19.0009 12.7164 20.9999V20.9999" stroke="#4C5564" stroke-width="1.5" stroke-linecap="round" stroke-linejoin="round"/>
<path d="M9.52798 9.2606C10.7648 10.4974 10.7648 12.5026 9.52798 13.7394C8.29119 14.9762 6.28596 14.9762 5.04917 13.7394C3.81238 12.5026 3.81238 10.4974 5.04917 9.2606C6.28596 8.02381 8.29119 8.02381 9.52798 9.2606" stroke="#4C5564" stroke-width="1.5" stroke-linecap="round" stroke-linejoin="round"/>
<path d="M18.9553 13.808C21.6633 13.808 23.8593 11.612 23.8593 8.904C23.8593 6.196 21.6643 4 18.9553 4C16.2463 4 14.0513 6.196 14.0513 8.904" stroke="#4C5564" stroke-width="1.5" stroke-linecap="round" stroke-linejoin="round"/>
<path d="M18.9604 13.8133C18.2224 13.8133 17.5234 13.6503 16.8954 13.3593L13.8774 14.0003L14.5084 10.9763C14.2154 10.3463 14.0514 9.6443 14.0514 8.9043" stroke="#4C5564" stroke-width="1.5" stroke-linecap="round" stroke-linejoin="round"/>
<path d="M16.6726 8.96464C16.6921 8.98417 16.6921 9.01583 16.6726 9.03536C16.653 9.05488 16.6214 9.05488 16.6019 9.03536C16.5823 9.01583 16.5823 8.98417 16.6019 8.96464C16.6214 8.94512 16.653 8.94512 16.6726 8.96464" stroke="#4C5564" stroke-width="1.5" stroke-linecap="round" stroke-linejoin="round"/>
<path d="M18.9226 8.96464C18.9421 8.98417 18.9421 9.01583 18.9226 9.03536C18.903 9.05488 18.8714 9.05488 18.8519 9.03536C18.8323 9.01583 18.8323 8.98417 18.8519 8.96464C18.8714 8.94512 18.903 8.94512 18.9226 8.96464" stroke="#4C5564" stroke-width="1.5" stroke-linecap="round" stroke-linejoin="round"/>
<path d="M21.1726 8.96464C21.1921 8.98417 21.1921 9.01583 21.1726 9.03536C21.153 9.05488 21.1214 9.05488 21.1019 9.03536C21.0823 9.01583 21.0823 8.98417 21.1019 8.96464C21.1214 8.94512 21.153 8.94512 21.1726 8.96464" stroke="#4C5564" stroke-width="1.5" stroke-linecap="round" stroke-linejoin="round"/>
</svg>
