<svg width="25" height="24" viewBox="0 0 25 24" fill="none" xmlns="http://www.w3.org/2000/svg">
<path d="M19.8594 11V5C19.8594 3.895 18.9644 3 17.8594 3H5.85938C4.75437 3 3.85938 3.895 3.85938 5V18" stroke="#52595A" stroke-width="1.5" stroke-linecap="round" stroke-linejoin="round"/>
<path d="M7.85938 3V16" stroke="#52595A" stroke-width="1.5" stroke-linecap="round" stroke-linejoin="round"/>
<path d="M11.8594 16H5.85938C4.75437 16 3.85938 16.895 3.85938 18V18C3.85938 19.105 4.75437 20 5.85938 20H11.8594" stroke="#52595A" stroke-width="1.5" stroke-linecap="round" stroke-linejoin="round"/>
<path d="M19.9802 14.879C21.2782 16.177 21.1382 18.366 19.5622 19.473C18.5592 20.177 17.1582 20.177 16.1552 19.473C14.5782 18.367 14.4392 16.177 15.7372 14.879C16.9092 13.707 18.8092 13.707 19.9802 14.879" stroke="#52595A" stroke-width="1.5" stroke-linecap="round" stroke-linejoin="round"/>
<path d="M21.8595 21.0001L19.9795 19.1201" stroke="#52595A" stroke-width="1.5" stroke-linecap="round" stroke-linejoin="round"/>
</svg>
